<?xml version="1.0" standalone="no"?>
<!DOCTYPE svg PUBLIC "-//W3C//DTD SVG 20010904//EN"
 "http://www.w3.org/TR/2001/REC-SVG-20010904/DTD/svg10.dtd">
<svg version="1.0" xmlns="http://www.w3.org/2000/svg"
 width="96.000000pt" height="96.000000pt" viewBox="0 0 96.000000 96.000000"
 preserveAspectRatio="xMidYMid meet">

<g transform="translate(0.000000,96.000000) scale(0.100000,-0.100000)"
fill="#000000" stroke="none">
<path d="M22 828 c-7 -7 -12 -34 -12 -60 l0 -48 465 0 466 0 -3 58 -3 57 -450
3 c-342 2 -454 -1 -463 -10z m666 -25 c-114 -2 -303 -2 -420 0 -117 1 -24 2
207 2 231 0 327 -1 213 -2z"/>
<path d="M425 593 c-44 -9 -48 -12 -35 -28 7 -8 29 -16 49 -16 21 -1 28 -3 16
-6 -11 -3 -24 -9 -29 -14 -6 -5 -18 -9 -28 -9 -13 0 -18 -8 -18 -30 0 -25 -4
-30 -24 -30 -13 0 -31 -3 -40 -6 -17 -7 -22 -34 -6 -34 6 0 10 5 10 10 0 6 13
10 29 10 32 0 40 -16 42 -90 1 -41 2 -42 9 -15 l8 30 1 -32 c2 -54 21 -37 23
20 l1 52 7 -55 7 -55 3 50 3 50 7 -45 c7 -43 7 -44 9 -10 l2 35 12 -35 c10
-28 18 -36 42 -38 37 -5 55 19 55 70 0 37 -1 38 -35 38 -23 0 -35 5 -35 14 0
8 -7 16 -15 20 -9 3 -15 19 -15 41 0 31 3 35 26 35 19 0 25 4 20 15 -3 10 1
15 13 15 24 0 46 25 31 35 -13 8 -117 14 -145 8z m25 -133 c0 -23 -5 -30 -19
-30 -24 0 -26 47 -2 53 9 3 17 5 19 6 1 0 2 -12 2 -29z m78 -111 c-10 -5 -18
-14 -18 -19 0 -13 37 -13 43 0 3 6 4 5 3 -2 -3 -17 -35 -23 -49 -9 -12 12 8
41 27 41 6 0 3 -5 -6 -11z"/>
<path d="M315 530 c3 -5 13 -10 21 -10 8 0 14 5 14 10 0 6 -9 10 -21 10 -11 0
-17 -4 -14 -10z"/>
<path d="M610 530 c0 -5 7 -10 15 -10 8 0 15 5 15 10 0 6 -7 10 -15 10 -8 0
-15 -4 -15 -10z"/>
<path d="M580 450 c0 -5 14 -10 30 -10 17 0 30 -4 30 -10 0 -5 5 -10 10 -10
16 0 11 27 -6 34 -25 9 -64 7 -64 -4z"/>
<path d="M350 422 c0 -5 -11 -14 -25 -20 -14 -6 -25 -16 -25 -22 0 -6 12 -4
30 5 17 9 30 22 30 30 0 8 -2 15 -5 15 -3 0 -5 -4 -5 -8z"/>
<path d="M600 418 c0 -10 10 -23 23 -29 12 -7 25 -17 29 -23 5 -7 8 -4 8 6 0
10 -10 23 -22 29 -13 7 -26 17 -30 23 -5 7 -8 4 -8 -6z"/>
<path d="M10 208 c0 -10 100 -13 465 -13 365 0 465 3 465 13 0 9 -100 12 -465
12 -365 0 -465 -3 -465 -12z"/>
<path d="M35 110 c8 -13 864 -13 885 0 10 6 -142 10 -438 10 -300 0 -451 -3
-447 -10z"/>
</g>
</svg>
